# xmcd
# Copyright (C) 1995-1998 Ti Kan
#
# Track frame offsets:
#       150
#       19550
#       37367
#       54938
#       69431
#       79104
#       102926
#       118467
#       135399
#       151653
#       168005
#       186477
#       199457
#
# Disc length: 2848 seconds
#
# Revision: 1
# Processed by: cddbd v1.5.2PL0 Copyright (c) Steve Scherf et al.
# Submitted via: CD-Transfer v1.0
#
DISCID=ae0b1e0d
DTITLE=Zamba - Boris Dugi Novaèki - Zamba
DYEAR=15
DGENRE=
TTITLE0=Home
TTITLE1=Cold Hearted Woman
TTITLE2=Street Livin'
TTITLE3=Goin' Wild
TTITLE4=Good Moon
TTITLE5=Evil Woman
TTITLE6=I Found The Blues
TTITLE7=Don't Leave Me 4 Good
TTITLE8=I Refuse (To Feel The Blues)
TTITLE9=Keep Your Heart
TTITLE10=Love
TTITLE11=Little Blues Queen
TTITLE12=Love Of My Life
EXTD=
EXTT0=
EXTT1=
EXTT2=
EXTT3=
EXTT4=
EXTT5=
EXTT6=
EXTT7=
EXTT8=
EXTT9=
EXTT10=
EXTT11=
EXTT12=
PLAYORDER=
